<mxfile host="app.diagrams.net" modified="2020-11-10T17:45:50.413Z" agent="5.0 (X11; Linux x86_64) AppleWebKit/537.36 (KHTML, like Gecko) Chrome/86.0.4240.183 Safari/537.36" etag="1xYCmF_bLZZXnjFp2zgo" version="13.9.3" type="github">
  <diagram id="fU9lGBUYQ2ge4V4bJ-36" name="Page-1">
    <mxGraphModel dx="1221" dy="2602" grid="1" gridSize="10" guides="1" tooltips="1" connect="1" arrows="1" fold="1" page="1" pageScale="1" pageWidth="1200" pageHeight="1920" math="0" shadow="0">
      <root>
        <mxCell id="0" />
        <mxCell id="1" parent="0" />
        <mxCell id="dqkOeJH_ota_kghcTByx-15" style="edgeStyle=orthogonalEdgeStyle;rounded=0;orthogonalLoop=1;jettySize=auto;html=1;entryX=0;entryY=0.5;entryDx=0;entryDy=0;" edge="1" parent="1" source="dqkOeJH_ota_kghcTByx-1" target="dqkOeJH_ota_kghcTByx-14">
          <mxGeometry relative="1" as="geometry" />
        </mxCell>
        <mxCell id="dqkOeJH_ota_kghcTByx-38" style="edgeStyle=orthogonalEdgeStyle;rounded=0;orthogonalLoop=1;jettySize=auto;html=1;entryX=0;entryY=0.5;entryDx=0;entryDy=0;" edge="1" parent="1" source="dqkOeJH_ota_kghcTByx-1" target="dqkOeJH_ota_kghcTByx-3">
          <mxGeometry relative="1" as="geometry" />
        </mxCell>
        <mxCell id="dqkOeJH_ota_kghcTByx-1" value="Leiloeiro" style="shape=umlActor;verticalLabelPosition=bottom;verticalAlign=top;html=1;outlineConnect=0;" vertex="1" parent="1">
          <mxGeometry x="190" y="360" width="30" height="60" as="geometry" />
        </mxCell>
        <mxCell id="dqkOeJH_ota_kghcTByx-3" value="Cria um leilão" style="ellipse;whiteSpace=wrap;html=1;" vertex="1" parent="1">
          <mxGeometry x="370" y="480" width="140" height="70" as="geometry" />
        </mxCell>
        <mxCell id="dqkOeJH_ota_kghcTByx-18" style="edgeStyle=orthogonalEdgeStyle;rounded=0;orthogonalLoop=1;jettySize=auto;html=1;entryX=1;entryY=0.5;entryDx=0;entryDy=0;" edge="1" parent="1" source="dqkOeJH_ota_kghcTByx-5" target="dqkOeJH_ota_kghcTByx-17">
          <mxGeometry relative="1" as="geometry" />
        </mxCell>
        <mxCell id="dqkOeJH_ota_kghcTByx-28" style="edgeStyle=orthogonalEdgeStyle;rounded=0;orthogonalLoop=1;jettySize=auto;html=1;entryX=1;entryY=0.5;entryDx=0;entryDy=0;" edge="1" parent="1" source="dqkOeJH_ota_kghcTByx-5" target="dqkOeJH_ota_kghcTByx-25">
          <mxGeometry relative="1" as="geometry" />
        </mxCell>
        <mxCell id="dqkOeJH_ota_kghcTByx-37" style="edgeStyle=orthogonalEdgeStyle;rounded=0;orthogonalLoop=1;jettySize=auto;html=1;entryX=1;entryY=0.5;entryDx=0;entryDy=0;" edge="1" parent="1" source="dqkOeJH_ota_kghcTByx-5" target="dqkOeJH_ota_kghcTByx-6">
          <mxGeometry relative="1" as="geometry" />
        </mxCell>
        <mxCell id="dqkOeJH_ota_kghcTByx-5" value="Leiloeiro" style="shape=umlActor;verticalLabelPosition=bottom;verticalAlign=top;html=1;outlineConnect=0;" vertex="1" parent="1">
          <mxGeometry x="940" y="255" width="30" height="60" as="geometry" />
        </mxCell>
        <mxCell id="dqkOeJH_ota_kghcTByx-6" value="Dar lances" style="ellipse;whiteSpace=wrap;html=1;" vertex="1" parent="1">
          <mxGeometry x="680" y="480" width="140" height="70" as="geometry" />
        </mxCell>
        <mxCell id="dqkOeJH_ota_kghcTByx-14" value="Finalizar um leilão" style="ellipse;whiteSpace=wrap;html=1;" vertex="1" parent="1">
          <mxGeometry x="370" y="250" width="140" height="70" as="geometry" />
        </mxCell>
        <mxCell id="dqkOeJH_ota_kghcTByx-17" value="Ganhar um leilão" style="ellipse;whiteSpace=wrap;html=1;" vertex="1" parent="1">
          <mxGeometry x="680" y="250" width="140" height="70" as="geometry" />
        </mxCell>
        <mxCell id="dqkOeJH_ota_kghcTByx-25" value="Pagar pelo produto" style="ellipse;whiteSpace=wrap;html=1;" vertex="1" parent="1">
          <mxGeometry x="680" y="80" width="140" height="70" as="geometry" />
        </mxCell>
        <mxCell id="dqkOeJH_ota_kghcTByx-31" value="Pagar com cartão" style="ellipse;whiteSpace=wrap;html=1;" vertex="1" parent="1">
          <mxGeometry x="440" y="80" width="140" height="70" as="geometry" />
        </mxCell>
        <mxCell id="dqkOeJH_ota_kghcTByx-32" value="Pagar por boleto" style="ellipse;whiteSpace=wrap;html=1;" vertex="1" parent="1">
          <mxGeometry x="500" y="-40" width="140" height="70" as="geometry" />
        </mxCell>
        <mxCell id="dqkOeJH_ota_kghcTByx-39" value="Depende de leilão&lt;br&gt;já ter sido criado" style="endArrow=open;endSize=12;dashed=1;html=1;entryX=1;entryY=0.5;entryDx=0;entryDy=0;" edge="1" parent="1" source="dqkOeJH_ota_kghcTByx-6" target="dqkOeJH_ota_kghcTByx-3">
          <mxGeometry width="160" relative="1" as="geometry">
            <mxPoint x="520" y="514.41" as="sourcePoint" />
            <mxPoint x="680" y="514.41" as="targetPoint" />
          </mxGeometry>
        </mxCell>
        <mxCell id="dqkOeJH_ota_kghcTByx-41" value="Extends" style="endArrow=block;endSize=16;endFill=0;html=1;entryX=0;entryY=0;entryDx=0;entryDy=0;" edge="1" parent="1" target="dqkOeJH_ota_kghcTByx-25">
          <mxGeometry width="160" relative="1" as="geometry">
            <mxPoint x="640" as="sourcePoint" />
            <mxPoint x="800" as="targetPoint" />
          </mxGeometry>
        </mxCell>
        <mxCell id="dqkOeJH_ota_kghcTByx-42" value="Extends" style="endArrow=block;endSize=16;endFill=0;html=1;exitX=1;exitY=0.5;exitDx=0;exitDy=0;entryX=0;entryY=0.5;entryDx=0;entryDy=0;" edge="1" parent="1" source="dqkOeJH_ota_kghcTByx-31" target="dqkOeJH_ota_kghcTByx-25">
          <mxGeometry width="160" relative="1" as="geometry">
            <mxPoint x="650" y="10" as="sourcePoint" />
            <mxPoint x="670" y="115" as="targetPoint" />
          </mxGeometry>
        </mxCell>
        <mxCell id="dqkOeJH_ota_kghcTByx-43" value="Depende de leilão&lt;br&gt;já ter sido criado" style="endArrow=open;endSize=12;dashed=1;html=1;entryX=0.5;entryY=0;entryDx=0;entryDy=0;exitX=0.5;exitY=1;exitDx=0;exitDy=0;" edge="1" parent="1" source="dqkOeJH_ota_kghcTByx-14" target="dqkOeJH_ota_kghcTByx-3">
          <mxGeometry width="160" relative="1" as="geometry">
            <mxPoint x="690.000000000003" y="525" as="sourcePoint" />
            <mxPoint x="520" y="525" as="targetPoint" />
          </mxGeometry>
        </mxCell>
        <mxCell id="dqkOeJH_ota_kghcTByx-44" value="O usuário deve&amp;nbsp;&lt;br&gt;ter ganho o leilão" style="endArrow=open;endSize=12;dashed=1;html=1;exitX=0.5;exitY=1;exitDx=0;exitDy=0;entryX=0.5;entryY=0;entryDx=0;entryDy=0;" edge="1" parent="1" source="dqkOeJH_ota_kghcTByx-25" target="dqkOeJH_ota_kghcTByx-17">
          <mxGeometry width="160" relative="1" as="geometry">
            <mxPoint x="560" y="250" as="sourcePoint" />
            <mxPoint x="720" y="250" as="targetPoint" />
          </mxGeometry>
        </mxCell>
        <mxCell id="dqkOeJH_ota_kghcTByx-45" value="O usuário deve&amp;nbsp;&lt;br&gt;ter pago pelo produto ganho&lt;br&gt;no leilão" style="endArrow=open;endSize=12;dashed=1;html=1;entryX=0.071;entryY=0.857;entryDx=0;entryDy=0;entryPerimeter=0;exitX=1;exitY=0;exitDx=0;exitDy=0;" edge="1" parent="1" source="dqkOeJH_ota_kghcTByx-14" target="dqkOeJH_ota_kghcTByx-25">
          <mxGeometry width="160" relative="1" as="geometry">
            <mxPoint x="570" y="270" as="sourcePoint" />
            <mxPoint x="720" y="250" as="targetPoint" />
          </mxGeometry>
        </mxCell>
        <mxCell id="dqkOeJH_ota_kghcTByx-46" value="O usuário deve&lt;br&gt;ter dado ao menos um&lt;br&gt;lance" style="endArrow=open;endSize=12;dashed=1;html=1;exitX=0.5;exitY=1;exitDx=0;exitDy=0;entryX=0.5;entryY=0;entryDx=0;entryDy=0;" edge="1" parent="1" source="dqkOeJH_ota_kghcTByx-17" target="dqkOeJH_ota_kghcTByx-6">
          <mxGeometry width="160" relative="1" as="geometry">
            <mxPoint x="760" y="160" as="sourcePoint" />
            <mxPoint x="760" y="260" as="targetPoint" />
          </mxGeometry>
        </mxCell>
      </root>
    </mxGraphModel>
  </diagram>
</mxfile>
